<svg width="400" height="300" viewBox="0 0 400 300" xmlns="http://www.w3.org/2000/svg">
<rect x="0" y="0" width="400" height="300" opacity="1" fill="#FFFFFF" stroke="none"/>
<line opacity="1" stroke="#FFFFFF" stroke-width="1" x1="80" y1="239" x2="80" y2="40"/>
<line opacity="1" stroke="#FFFFFF" stroke-width="1" x1="106" y1="239" x2="106" y2="40"/>
<line opacity="1" stroke="#FFFFFF" stroke-width="1" x1="132" y1="239" x2="132" y2="40"/>
<line opacity="1" stroke="#FFFFFF" stroke-width="1" x1="158" y1="239" x2="158" y2="40"/>
<line opacity="1" stroke="#FFFFFF" stroke-width="1" x1="184" y1="239" x2="184" y2="40"/>
<line opacity="1" stroke="#FFFFFF" stroke-width="1" x1="210" y1="239" x2="210" y2="40"/>
<line opacity="1" stroke="#FFFFFF" stroke-width="1" x1="236" y1="239" x2="236" y2="40"/>
<line opacity="1" stroke="#FFFFFF" stroke-width="1" x1="262" y1="239" x2="262" y2="40"/>
<line opacity="1" stroke="#FFFFFF" stroke-width="1" x1="288" y1="239" x2="288" y2="40"/>
<line opacity="1" stroke="#FFFFFF" stroke-width="1" x1="314" y1="239" x2="314" y2="40"/>
<line opacity="1" stroke="#FFFFFF" stroke-width="1" x1="80" y1="239" x2="314" y2="239"/>
<line opacity="1" stroke="#FFFFFF" stroke-width="1" x1="80" y1="234" x2="314" y2="234"/>
<line opacity="1" stroke="#FFFFFF" stroke-width="1" x1="80" y1="229" x2="314" y2="229"/>
<line opacity="1" stroke="#FFFFFF" stroke-width="1" x1="80" y1="224" x2="314" y2="224"/>
<line opacity="1" stroke="#FFFFFF" stroke-width="1" x1="80" y1="218" x2="314" y2="218"/>
<line opacity="1" stroke="#FFFFFF" stroke-width="1" x1="80" y1="213" x2="314" y2="213"/>
<line opacity="1" stroke="#FFFFFF" stroke-width="1" x1="80" y1="208" x2="314" y2="208"/>
<line opacity="1" stroke="#FFFFFF" stroke-width="1" x1="80" y1="202" x2="314" y2="202"/>
<line opacity="1" stroke="#FFFFFF" stroke-width="1" x1="80" y1="197" x2="314" y2="197"/>
<line opacity="1" stroke="#FFFFFF" stroke-width="1" x1="80" y1="192" x2="314" y2="192"/>
<line opacity="1" stroke="#FFFFFF" stroke-width="1" x1="80" y1="186" x2="314" y2="186"/>
<line opacity="1" stroke="#FFFFFF" stroke-width="1" x1="80" y1="181" x2="314" y2="181"/>
<line opacity="1" stroke="#FFFFFF" stroke-width="1" x1="80" y1="176" x2="314" y2="176"/>
<line opacity="1" stroke="#FFFFFF" stroke-width="1" x1="80" y1="171" x2="314" y2="171"/>
<line opacity="1" stroke="#FFFFFF" stroke-width="1" x1="80" y1="165" x2="314" y2="165"/>
<line opacity="1" stroke="#FFFFFF" stroke-width="1" x1="80" y1="160" x2="314" y2="160"/>
<line opacity="1" stroke="#FFFFFF" stroke-width="1" x1="80" y1="155" x2="314" y2="155"/>
<line opacity="1" stroke="#FFFFFF" stroke-width="1" x1="80" y1="149" x2="314" y2="149"/>
<line opacity="1" stroke="#FFFFFF" stroke-width="1" x1="80" y1="144" x2="314" y2="144"/>
<line opacity="1" stroke="#FFFFFF" stroke-width="1" x1="80" y1="139" x2="314" y2="139"/>
<line opacity="1" stroke="#FFFFFF" stroke-width="1" x1="80" y1="133" x2="314" y2="133"/>
<line opacity="1" stroke="#FFFFFF" stroke-width="1" x1="80" y1="128" x2="314" y2="128"/>
<line opacity="1" stroke="#FFFFFF" stroke-width="1" x1="80" y1="123" x2="314" y2="123"/>
<line opacity="1" stroke="#FFFFFF" stroke-width="1" x1="80" y1="117" x2="314" y2="117"/>
<line opacity="1" stroke="#FFFFFF" stroke-width="1" x1="80" y1="112" x2="314" y2="112"/>
<line opacity="1" stroke="#FFFFFF" stroke-width="1" x1="80" y1="107" x2="314" y2="107"/>
<line opacity="1" stroke="#FFFFFF" stroke-width="1" x1="80" y1="102" x2="314" y2="102"/>
<line opacity="1" stroke="#FFFFFF" stroke-width="1" x1="80" y1="96" x2="314" y2="96"/>
<line opacity="1" stroke="#FFFFFF" stroke-width="1" x1="80" y1="91" x2="314" y2="91"/>
<line opacity="1" stroke="#FFFFFF" stroke-width="1" x1="80" y1="86" x2="314" y2="86"/>
<line opacity="1" stroke="#FFFFFF" stroke-width="1" x1="80" y1="80" x2="314" y2="80"/>
<line opacity="1" stroke="#FFFFFF" stroke-width="1" x1="80" y1="75" x2="314" y2="75"/>
<line opacity="1" stroke="#FFFFFF" stroke-width="1" x1="80" y1="70" x2="314" y2="70"/>
<line opacity="1" stroke="#FFFFFF" stroke-width="1" x1="80" y1="64" x2="314" y2="64"/>
<line opacity="1" stroke="#FFFFFF" stroke-width="1" x1="80" y1="59" x2="314" y2="59"/>
<line opacity="1" stroke="#FFFFFF" stroke-width="1" x1="80" y1="54" x2="314" y2="54"/>
<line opacity="1" stroke="#FFFFFF" stroke-width="1" x1="80" y1="48" x2="314" y2="48"/>
<line opacity="1" stroke="#FFFFFF" stroke-width="1" x1="80" y1="43" x2="314" y2="43"/>
<line opacity="0.2" stroke="#000000" stroke-width="1" x1="106" y1="239" x2="106" y2="40"/>
<line opacity="0.2" stroke="#000000" stroke-width="1" x1="158" y1="239" x2="158" y2="40"/>
<line opacity="0.2" stroke="#000000" stroke-width="1" x1="210" y1="239" x2="210" y2="40"/>
<line opacity="0.2" stroke="#000000" stroke-width="1" x1="262" y1="239" x2="262" y2="40"/>
<line opacity="0.2" stroke="#000000" stroke-width="1" x1="314" y1="239" x2="314" y2="40"/>
<line opacity="0.2" stroke="#000000" stroke-width="1" x1="80" y1="239" x2="314" y2="239"/>
<line opacity="0.2" stroke="#000000" stroke-width="1" x1="80" y1="186" x2="314" y2="186"/>
<line opacity="0.2" stroke="#000000" stroke-width="1" x1="80" y1="133" x2="314" y2="133"/>
<line opacity="0.2" stroke="#000000" stroke-width="1" x1="80" y1="80" x2="314" y2="80"/>
<polyline fill="none" opacity="1" stroke="#000000" stroke-width="1" points="79,40 79,239 "/>
<text x="70" y="239" dy="0.5ex" text-anchor="end" font-family="sans-serif" font-size="22.580645161290324" opacity="1" fill="#000000">
0
</text>
<polyline fill="none" opacity="1" stroke="#000000" stroke-width="1" points="74,239 79,239 "/>
<text x="70" y="186" dy="0.5ex" text-anchor="end" font-family="sans-serif" font-size="22.580645161290324" opacity="1" fill="#000000">
20
</text>
<polyline fill="none" opacity="1" stroke="#000000" stroke-width="1" points="74,186 79,186 "/>
<text x="70" y="133" dy="0.5ex" text-anchor="end" font-family="sans-serif" font-size="22.580645161290324" opacity="1" fill="#000000">
40
</text>
<polyline fill="none" opacity="1" stroke="#000000" stroke-width="1" points="74,133 79,133 "/>
<text x="70" y="80" dy="0.5ex" text-anchor="end" font-family="sans-serif" font-size="22.580645161290324" opacity="1" fill="#000000">
60
</text>
<polyline fill="none" opacity="1" stroke="#000000" stroke-width="1" points="74,80 79,80 "/>
<polyline fill="none" opacity="1" stroke="#000000" stroke-width="1" points="80,240 314,240 "/>
<text x="106" y="250" dy="0.76em" text-anchor="middle" font-family="sans-serif" font-size="22.580645161290324" opacity="1" fill="#000000">
2
</text>
<polyline fill="none" opacity="1" stroke="#000000" stroke-width="1" points="106,240 106,245 "/>
<text x="158" y="250" dy="0.76em" text-anchor="middle" font-family="sans-serif" font-size="22.580645161290324" opacity="1" fill="#000000">
4
</text>
<polyline fill="none" opacity="1" stroke="#000000" stroke-width="1" points="158,240 158,245 "/>
<text x="210" y="250" dy="0.76em" text-anchor="middle" font-family="sans-serif" font-size="22.580645161290324" opacity="1" fill="#000000">
6
</text>
<polyline fill="none" opacity="1" stroke="#000000" stroke-width="1" points="210,240 210,245 "/>
<text x="262" y="250" dy="0.76em" text-anchor="middle" font-family="sans-serif" font-size="22.580645161290324" opacity="1" fill="#000000">
8
</text>
<polyline fill="none" opacity="1" stroke="#000000" stroke-width="1" points="262,240 262,245 "/>
<text x="314" y="250" dy="0.76em" text-anchor="middle" font-family="sans-serif" font-size="22.580645161290324" opacity="1" fill="#000000">
10
</text>
<polyline fill="none" opacity="1" stroke="#000000" stroke-width="1" points="314,240 314,245 "/>
<polyline fill="none" opacity="1" stroke="#000000" stroke-width="1" points="315,40 315,240 "/>
<text x="325" y="240" dy="0.5ex" text-anchor="start" font-family="sans-serif" font-size="22.580645161290324" opacity="1" fill="#000000">
0
</text>
<polyline fill="none" opacity="1" stroke="#000000" stroke-width="1" points="315,240 320,240 "/>
<text x="325" y="176" dy="0.5ex" text-anchor="start" font-family="sans-serif" font-size="22.580645161290324" opacity="1" fill="#000000">
200
</text>
<polyline fill="none" opacity="1" stroke="#000000" stroke-width="1" points="315,176 320,176 "/>
<text x="325" y="111" dy="0.5ex" text-anchor="start" font-family="sans-serif" font-size="22.580645161290324" opacity="1" fill="#000000">
400
</text>
<polyline fill="none" opacity="1" stroke="#000000" stroke-width="1" points="315,111 320,111 "/>
<text x="325" y="47" dy="0.5ex" text-anchor="start" font-family="sans-serif" font-size="22.580645161290324" opacity="1" fill="#000000">
600
</text>
<polyline fill="none" opacity="1" stroke="#000000" stroke-width="1" points="315,47 320,47 "/>
<text x="5" y="215" dy="0.76em" text-anchor="start" font-family="sans-serif" font-size="22.580645161290324" opacity="1" fill="#000000" transform="rotate(270, 5, 215)">
Latency [ms]
</text>
<text x="120" y="280" dy="0.76em" text-anchor="start" font-family="sans-serif" font-size="22.580645161290324" opacity="1" fill="#000000">
# of users 
</text>
<text x="390" y="35" dy="0.76em" text-anchor="start" font-family="sans-serif" font-size="22.580645161290324" opacity="1" fill="#000000" transform="rotate(90, 390, 35)">
Op. Cost [$/month]
</text>
<polyline fill="none" opacity="1" stroke="#A36302" stroke-width="5" points="80,122 106,122 132,122 158,122 184,122 210,122 236,122 262,122 288,122 314,122 "/>
<polyline fill="none" opacity="1" stroke="#820101" stroke-width="5" points="80,168 106,169 132,169 158,168 184,169 210,169 236,168 262,169 288,169 314,168 "/>
<polyline fill="none" opacity="1" stroke="#A36302" stroke-width="5" points="80,220 106,200 132,180 158,160 184,140 210,120 236,100 262,80 288,60 315,40 "/>
<circle cx="80" cy="220" r="7" opacity="1" fill="#A36302" stroke="none" stroke-width="1"/>
<circle cx="106" cy="200" r="7" opacity="1" fill="#A36302" stroke="none" stroke-width="1"/>
<circle cx="132" cy="180" r="7" opacity="1" fill="#A36302" stroke="none" stroke-width="1"/>
<circle cx="158" cy="160" r="7" opacity="1" fill="#A36302" stroke="none" stroke-width="1"/>
<circle cx="184" cy="140" r="7" opacity="1" fill="#A36302" stroke="none" stroke-width="1"/>
<circle cx="210" cy="120" r="7" opacity="1" fill="#A36302" stroke="none" stroke-width="1"/>
<circle cx="236" cy="100" r="7" opacity="1" fill="#A36302" stroke="none" stroke-width="1"/>
<circle cx="262" cy="80" r="7" opacity="1" fill="#A36302" stroke="none" stroke-width="1"/>
<circle cx="288" cy="60" r="7" opacity="1" fill="#A36302" stroke="none" stroke-width="1"/>
<circle cx="315" cy="40" r="7" opacity="1" fill="#A36302" stroke="none" stroke-width="1"/>
<polyline fill="none" opacity="1" stroke="#820101" stroke-width="5" points="80,180 106,180 132,180 158,180 184,180 210,180 236,180 262,180 288,180 315,180 "/>
<circle cx="80" cy="180" r="7" opacity="1" fill="#820101" stroke="none" stroke-width="1"/>
<circle cx="106" cy="180" r="7" opacity="1" fill="#820101" stroke="none" stroke-width="1"/>
<circle cx="132" cy="180" r="7" opacity="1" fill="#820101" stroke="none" stroke-width="1"/>
<circle cx="158" cy="180" r="7" opacity="1" fill="#820101" stroke="none" stroke-width="1"/>
<circle cx="184" cy="180" r="7" opacity="1" fill="#820101" stroke="none" stroke-width="1"/>
<circle cx="210" cy="180" r="7" opacity="1" fill="#820101" stroke="none" stroke-width="1"/>
<circle cx="236" cy="180" r="7" opacity="1" fill="#820101" stroke="none" stroke-width="1"/>
<circle cx="262" cy="180" r="7" opacity="1" fill="#820101" stroke="none" stroke-width="1"/>
<circle cx="288" cy="180" r="7" opacity="1" fill="#820101" stroke="none" stroke-width="1"/>
<circle cx="315" cy="180" r="7" opacity="1" fill="#820101" stroke="none" stroke-width="1"/>
<polyline fill="none" opacity="1" stroke="#010682" stroke-width="5" points="80,220 106,220 132,220 158,220 184,220 210,220 236,220 262,220 288,220 315,220 "/>
<circle cx="80" cy="220" r="7" opacity="1" fill="#010682" stroke="none" stroke-width="1"/>
<circle cx="106" cy="220" r="7" opacity="1" fill="#010682" stroke="none" stroke-width="1"/>
<circle cx="132" cy="220" r="7" opacity="1" fill="#010682" stroke="none" stroke-width="1"/>
<circle cx="158" cy="220" r="7" opacity="1" fill="#010682" stroke="none" stroke-width="1"/>
<circle cx="184" cy="220" r="7" opacity="1" fill="#010682" stroke="none" stroke-width="1"/>
<circle cx="210" cy="220" r="7" opacity="1" fill="#010682" stroke="none" stroke-width="1"/>
<circle cx="236" cy="220" r="7" opacity="1" fill="#010682" stroke="none" stroke-width="1"/>
<circle cx="262" cy="220" r="7" opacity="1" fill="#010682" stroke="none" stroke-width="1"/>
<circle cx="288" cy="220" r="7" opacity="1" fill="#010682" stroke="none" stroke-width="1"/>
<circle cx="315" cy="220" r="7" opacity="1" fill="#010682" stroke="none" stroke-width="1"/>
<polyline fill="none" opacity="1" stroke="#000000" stroke-width="1" points="80,40 314,40 "/>
<polyline fill="none" opacity="1" stroke="#000000" stroke-width="1" points="314,239 314,40 "/>
<rect x="20" y="2" width="20" height="20" opacity="1" fill="#820101" stroke="none"/>
<polyline fill="none" opacity="1" stroke="#000000" stroke-width="1" points="20,2 40,2 40,22 20,22 20,2 "/>
<text x="50" y="7" dy="0.76em" text-anchor="start" font-family="sans-serif" font-size="22.580645161290324" opacity="1" fill="#000000">
accless
</text>
<rect x="140" y="2" width="20" height="20" opacity="1" fill="#010682" stroke="none"/>
<polyline fill="none" opacity="1" stroke="#000000" stroke-width="1" points="140,2 160,2 160,22 140,22 140,2 "/>
<text x="170" y="7" dy="0.76em" text-anchor="start" font-family="sans-serif" font-size="22.580645161290324" opacity="1" fill="#000000">
accless-single-auth
</text>
</svg>
