<svg width="400" height="300" viewBox="0 0 400 300" xmlns="http://www.w3.org/2000/svg">
<rect x="0" y="0" width="400" height="300" opacity="1" fill="#FFFFFF" stroke="none"/>
<line opacity="1" stroke="#FFFFFF" stroke-width="1" x1="90" y1="239" x2="90" y2="40"/>
<line opacity="1" stroke="#FFFFFF" stroke-width="1" x1="97" y1="239" x2="97" y2="40"/>
<line opacity="1" stroke="#FFFFFF" stroke-width="1" x1="104" y1="239" x2="104" y2="40"/>
<line opacity="1" stroke="#FFFFFF" stroke-width="1" x1="111" y1="239" x2="111" y2="40"/>
<line opacity="1" stroke="#FFFFFF" stroke-width="1" x1="118" y1="239" x2="118" y2="40"/>
<line opacity="1" stroke="#FFFFFF" stroke-width="1" x1="125" y1="239" x2="125" y2="40"/>
<line opacity="1" stroke="#FFFFFF" stroke-width="1" x1="132" y1="239" x2="132" y2="40"/>
<line opacity="1" stroke="#FFFFFF" stroke-width="1" x1="139" y1="239" x2="139" y2="40"/>
<line opacity="1" stroke="#FFFFFF" stroke-width="1" x1="146" y1="239" x2="146" y2="40"/>
<line opacity="1" stroke="#FFFFFF" stroke-width="1" x1="153" y1="239" x2="153" y2="40"/>
<line opacity="1" stroke="#FFFFFF" stroke-width="1" x1="161" y1="239" x2="161" y2="40"/>
<line opacity="1" stroke="#FFFFFF" stroke-width="1" x1="168" y1="239" x2="168" y2="40"/>
<line opacity="1" stroke="#FFFFFF" stroke-width="1" x1="175" y1="239" x2="175" y2="40"/>
<line opacity="1" stroke="#FFFFFF" stroke-width="1" x1="182" y1="239" x2="182" y2="40"/>
<line opacity="1" stroke="#FFFFFF" stroke-width="1" x1="189" y1="239" x2="189" y2="40"/>
<line opacity="1" stroke="#FFFFFF" stroke-width="1" x1="196" y1="239" x2="196" y2="40"/>
<line opacity="1" stroke="#FFFFFF" stroke-width="1" x1="203" y1="239" x2="203" y2="40"/>
<line opacity="1" stroke="#FFFFFF" stroke-width="1" x1="210" y1="239" x2="210" y2="40"/>
<line opacity="1" stroke="#FFFFFF" stroke-width="1" x1="217" y1="239" x2="217" y2="40"/>
<line opacity="1" stroke="#FFFFFF" stroke-width="1" x1="224" y1="239" x2="224" y2="40"/>
<line opacity="1" stroke="#FFFFFF" stroke-width="1" x1="232" y1="239" x2="232" y2="40"/>
<line opacity="1" stroke="#FFFFFF" stroke-width="1" x1="239" y1="239" x2="239" y2="40"/>
<line opacity="1" stroke="#FFFFFF" stroke-width="1" x1="246" y1="239" x2="246" y2="40"/>
<line opacity="1" stroke="#FFFFFF" stroke-width="1" x1="253" y1="239" x2="253" y2="40"/>
<line opacity="1" stroke="#FFFFFF" stroke-width="1" x1="260" y1="239" x2="260" y2="40"/>
<line opacity="1" stroke="#FFFFFF" stroke-width="1" x1="267" y1="239" x2="267" y2="40"/>
<line opacity="1" stroke="#FFFFFF" stroke-width="1" x1="274" y1="239" x2="274" y2="40"/>
<line opacity="1" stroke="#FFFFFF" stroke-width="1" x1="281" y1="239" x2="281" y2="40"/>
<line opacity="1" stroke="#FFFFFF" stroke-width="1" x1="288" y1="239" x2="288" y2="40"/>
<line opacity="1" stroke="#FFFFFF" stroke-width="1" x1="295" y1="239" x2="295" y2="40"/>
<line opacity="1" stroke="#FFFFFF" stroke-width="1" x1="303" y1="239" x2="303" y2="40"/>
<line opacity="1" stroke="#FFFFFF" stroke-width="1" x1="310" y1="239" x2="310" y2="40"/>
<line opacity="1" stroke="#FFFFFF" stroke-width="1" x1="317" y1="239" x2="317" y2="40"/>
<line opacity="1" stroke="#FFFFFF" stroke-width="1" x1="324" y1="239" x2="324" y2="40"/>
<line opacity="1" stroke="#FFFFFF" stroke-width="1" x1="331" y1="239" x2="331" y2="40"/>
<line opacity="1" stroke="#FFFFFF" stroke-width="1" x1="338" y1="239" x2="338" y2="40"/>
<line opacity="1" stroke="#FFFFFF" stroke-width="1" x1="345" y1="239" x2="345" y2="40"/>
<line opacity="1" stroke="#FFFFFF" stroke-width="1" x1="352" y1="239" x2="352" y2="40"/>
<line opacity="1" stroke="#FFFFFF" stroke-width="1" x1="359" y1="239" x2="359" y2="40"/>
<line opacity="1" stroke="#FFFFFF" stroke-width="1" x1="366" y1="239" x2="366" y2="40"/>
<line opacity="1" stroke="#FFFFFF" stroke-width="1" x1="374" y1="239" x2="374" y2="40"/>
<line opacity="1" stroke="#FFFFFF" stroke-width="1" x1="90" y1="239" x2="374" y2="239"/>
<line opacity="1" stroke="#FFFFFF" stroke-width="1" x1="90" y1="235" x2="374" y2="235"/>
<line opacity="1" stroke="#FFFFFF" stroke-width="1" x1="90" y1="230" x2="374" y2="230"/>
<line opacity="1" stroke="#FFFFFF" stroke-width="1" x1="90" y1="225" x2="374" y2="225"/>
<line opacity="1" stroke="#FFFFFF" stroke-width="1" x1="90" y1="220" x2="374" y2="220"/>
<line opacity="1" stroke="#FFFFFF" stroke-width="1" x1="90" y1="215" x2="374" y2="215"/>
<line opacity="1" stroke="#FFFFFF" stroke-width="1" x1="90" y1="210" x2="374" y2="210"/>
<line opacity="1" stroke="#FFFFFF" stroke-width="1" x1="90" y1="205" x2="374" y2="205"/>
<line opacity="1" stroke="#FFFFFF" stroke-width="1" x1="90" y1="200" x2="374" y2="200"/>
<line opacity="1" stroke="#FFFFFF" stroke-width="1" x1="90" y1="195" x2="374" y2="195"/>
<line opacity="1" stroke="#FFFFFF" stroke-width="1" x1="90" y1="190" x2="374" y2="190"/>
<line opacity="1" stroke="#FFFFFF" stroke-width="1" x1="90" y1="185" x2="374" y2="185"/>
<line opacity="1" stroke="#FFFFFF" stroke-width="1" x1="90" y1="180" x2="374" y2="180"/>
<line opacity="1" stroke="#FFFFFF" stroke-width="1" x1="90" y1="175" x2="374" y2="175"/>
<line opacity="1" stroke="#FFFFFF" stroke-width="1" x1="90" y1="170" x2="374" y2="170"/>
<line opacity="1" stroke="#FFFFFF" stroke-width="1" x1="90" y1="165" x2="374" y2="165"/>
<line opacity="1" stroke="#FFFFFF" stroke-width="1" x1="90" y1="160" x2="374" y2="160"/>
<line opacity="1" stroke="#FFFFFF" stroke-width="1" x1="90" y1="155" x2="374" y2="155"/>
<line opacity="1" stroke="#FFFFFF" stroke-width="1" x1="90" y1="150" x2="374" y2="150"/>
<line opacity="1" stroke="#FFFFFF" stroke-width="1" x1="90" y1="145" x2="374" y2="145"/>
<line opacity="1" stroke="#FFFFFF" stroke-width="1" x1="90" y1="140" x2="374" y2="140"/>
<line opacity="1" stroke="#FFFFFF" stroke-width="1" x1="90" y1="135" x2="374" y2="135"/>
<line opacity="1" stroke="#FFFFFF" stroke-width="1" x1="90" y1="130" x2="374" y2="130"/>
<line opacity="1" stroke="#FFFFFF" stroke-width="1" x1="90" y1="125" x2="374" y2="125"/>
<line opacity="1" stroke="#FFFFFF" stroke-width="1" x1="90" y1="120" x2="374" y2="120"/>
<line opacity="1" stroke="#FFFFFF" stroke-width="1" x1="90" y1="115" x2="374" y2="115"/>
<line opacity="1" stroke="#FFFFFF" stroke-width="1" x1="90" y1="110" x2="374" y2="110"/>
<line opacity="1" stroke="#FFFFFF" stroke-width="1" x1="90" y1="105" x2="374" y2="105"/>
<line opacity="1" stroke="#FFFFFF" stroke-width="1" x1="90" y1="100" x2="374" y2="100"/>
<line opacity="1" stroke="#FFFFFF" stroke-width="1" x1="90" y1="95" x2="374" y2="95"/>
<line opacity="1" stroke="#FFFFFF" stroke-width="1" x1="90" y1="90" x2="374" y2="90"/>
<line opacity="1" stroke="#FFFFFF" stroke-width="1" x1="90" y1="85" x2="374" y2="85"/>
<line opacity="1" stroke="#FFFFFF" stroke-width="1" x1="90" y1="80" x2="374" y2="80"/>
<line opacity="1" stroke="#FFFFFF" stroke-width="1" x1="90" y1="75" x2="374" y2="75"/>
<line opacity="1" stroke="#FFFFFF" stroke-width="1" x1="90" y1="70" x2="374" y2="70"/>
<line opacity="1" stroke="#FFFFFF" stroke-width="1" x1="90" y1="65" x2="374" y2="65"/>
<line opacity="1" stroke="#FFFFFF" stroke-width="1" x1="90" y1="60" x2="374" y2="60"/>
<line opacity="1" stroke="#FFFFFF" stroke-width="1" x1="90" y1="55" x2="374" y2="55"/>
<line opacity="1" stroke="#FFFFFF" stroke-width="1" x1="90" y1="50" x2="374" y2="50"/>
<line opacity="1" stroke="#FFFFFF" stroke-width="1" x1="90" y1="45" x2="374" y2="45"/>
<text x="232" y="280" dy="-0.5ex" text-anchor="middle" font-family="sans-serif" font-size="22.580645161290324" opacity="1" fill="#000000">

</text>
<line opacity="0.2" stroke="#000000" stroke-width="1" x1="90" y1="239" x2="90" y2="40"/>
<line opacity="0.2" stroke="#000000" stroke-width="1" x1="161" y1="239" x2="161" y2="40"/>
<line opacity="0.2" stroke="#000000" stroke-width="1" x1="232" y1="239" x2="232" y2="40"/>
<line opacity="0.2" stroke="#000000" stroke-width="1" x1="303" y1="239" x2="303" y2="40"/>
<line opacity="0.2" stroke="#000000" stroke-width="1" x1="374" y1="239" x2="374" y2="40"/>
<line opacity="0.2" stroke="#000000" stroke-width="1" x1="90" y1="239" x2="374" y2="239"/>
<line opacity="0.2" stroke="#000000" stroke-width="1" x1="90" y1="190" x2="374" y2="190"/>
<line opacity="0.2" stroke="#000000" stroke-width="1" x1="90" y1="140" x2="374" y2="140"/>
<line opacity="0.2" stroke="#000000" stroke-width="1" x1="90" y1="90" x2="374" y2="90"/>
<line opacity="0.2" stroke="#000000" stroke-width="1" x1="90" y1="40" x2="374" y2="40"/>
<polyline fill="none" opacity="1" stroke="#000000" stroke-width="1" points="89,40 89,239 "/>
<text x="80" y="239" dy="0.5ex" text-anchor="end" font-family="sans-serif" font-size="22.580645161290324" opacity="1" fill="#000000">
0.0
</text>
<polyline fill="none" opacity="1" stroke="#000000" stroke-width="1" points="84,239 89,239 "/>
<text x="80" y="190" dy="0.5ex" text-anchor="end" font-family="sans-serif" font-size="22.580645161290324" opacity="1" fill="#000000">
0.5
</text>
<polyline fill="none" opacity="1" stroke="#000000" stroke-width="1" points="84,190 89,190 "/>
<text x="80" y="140" dy="0.5ex" text-anchor="end" font-family="sans-serif" font-size="22.580645161290324" opacity="1" fill="#000000">
1.0
</text>
<polyline fill="none" opacity="1" stroke="#000000" stroke-width="1" points="84,140 89,140 "/>
<text x="80" y="90" dy="0.5ex" text-anchor="end" font-family="sans-serif" font-size="22.580645161290324" opacity="1" fill="#000000">
1.5
</text>
<polyline fill="none" opacity="1" stroke="#000000" stroke-width="1" points="84,90 89,90 "/>
<text x="80" y="40" dy="0.5ex" text-anchor="end" font-family="sans-serif" font-size="22.580645161290324" opacity="1" fill="#000000">
2.0
</text>
<polyline fill="none" opacity="1" stroke="#000000" stroke-width="1" points="84,40 89,40 "/>
<polyline fill="none" opacity="1" stroke="#000000" stroke-width="1" points="90,240 374,240 "/>
<text x="90" y="250" dy="0.76em" text-anchor="middle" font-family="sans-serif" font-size="22.580645161290324" opacity="1" fill="#000000">
0
</text>
<polyline fill="none" opacity="1" stroke="#000000" stroke-width="1" points="90,240 90,245 "/>
<text x="161" y="250" dy="0.76em" text-anchor="middle" font-family="sans-serif" font-size="22.580645161290324" opacity="1" fill="#000000">
50
</text>
<polyline fill="none" opacity="1" stroke="#000000" stroke-width="1" points="161,240 161,245 "/>
<text x="232" y="250" dy="0.76em" text-anchor="middle" font-family="sans-serif" font-size="22.580645161290324" opacity="1" fill="#000000">
100
</text>
<polyline fill="none" opacity="1" stroke="#000000" stroke-width="1" points="232,240 232,245 "/>
<text x="303" y="250" dy="0.76em" text-anchor="middle" font-family="sans-serif" font-size="22.580645161290324" opacity="1" fill="#000000">
150
</text>
<polyline fill="none" opacity="1" stroke="#000000" stroke-width="1" points="303,240 303,245 "/>
<text x="374" y="250" dy="0.76em" text-anchor="middle" font-family="sans-serif" font-size="22.580645161290324" opacity="1" fill="#000000">
200
</text>
<polyline fill="none" opacity="1" stroke="#000000" stroke-width="1" points="374,240 374,245 "/>
<text x="5" y="200" dy="0.76em" text-anchor="start" font-family="sans-serif" font-size="22.580645161290324" opacity="1" fill="#000000" transform="rotate(270, 5, 200)">
Latency [s]
</text>
<text x="125" y="275" dy="0.76em" text-anchor="start" font-family="sans-serif" font-size="22.580645161290324" opacity="1" fill="#000000">
Throughput [RPS]
</text>
<polyline fill="none" opacity="1" stroke="#A36302" stroke-width="5" points="91,235 118,221 175,187 203,172 232,155 260,139 317,107 345,90 374,73 "/>
<circle cx="91" cy="235" r="5" opacity="1" fill="#A36302" stroke="none" stroke-width="1"/>
<circle cx="118" cy="221" r="5" opacity="1" fill="#A36302" stroke="none" stroke-width="1"/>
<circle cx="175" cy="187" r="5" opacity="1" fill="#A36302" stroke="none" stroke-width="1"/>
<circle cx="203" cy="172" r="5" opacity="1" fill="#A36302" stroke="none" stroke-width="1"/>
<circle cx="232" cy="155" r="5" opacity="1" fill="#A36302" stroke="none" stroke-width="1"/>
<circle cx="260" cy="139" r="5" opacity="1" fill="#A36302" stroke="none" stroke-width="1"/>
<circle cx="317" cy="107" r="5" opacity="1" fill="#A36302" stroke="none" stroke-width="1"/>
<circle cx="345" cy="90" r="5" opacity="1" fill="#A36302" stroke="none" stroke-width="1"/>
<circle cx="374" cy="73" r="5" opacity="1" fill="#A36302" stroke="none" stroke-width="1"/>
<polyline fill="none" opacity="1" stroke="#00611D" stroke-width="5" points="91,109 97,161 104,75 111,40 111,40 111,40 111,40 111,40 111,40 "/>
<circle cx="91" cy="109" r="5" opacity="1" fill="#00611D" stroke="none" stroke-width="1"/>
<circle cx="97" cy="161" r="5" opacity="1" fill="#00611D" stroke="none" stroke-width="1"/>
<circle cx="104" cy="75" r="5" opacity="1" fill="#00611D" stroke="none" stroke-width="1"/>
<polyline fill="none" opacity="1" stroke="#820101" stroke-width="5" points="91,237 118,232 175,226 203,222 232,219 260,216 317,206 345,205 374,187 "/>
<circle cx="91" cy="237" r="5" opacity="1" fill="#820101" stroke="none" stroke-width="1"/>
<circle cx="118" cy="232" r="5" opacity="1" fill="#820101" stroke="none" stroke-width="1"/>
<circle cx="175" cy="226" r="5" opacity="1" fill="#820101" stroke="none" stroke-width="1"/>
<circle cx="203" cy="222" r="5" opacity="1" fill="#820101" stroke="none" stroke-width="1"/>
<circle cx="232" cy="219" r="5" opacity="1" fill="#820101" stroke="none" stroke-width="1"/>
<circle cx="260" cy="216" r="5" opacity="1" fill="#820101" stroke="none" stroke-width="1"/>
<circle cx="317" cy="206" r="5" opacity="1" fill="#820101" stroke="none" stroke-width="1"/>
<circle cx="345" cy="205" r="5" opacity="1" fill="#820101" stroke="none" stroke-width="1"/>
<circle cx="374" cy="187" r="5" opacity="1" fill="#820101" stroke="none" stroke-width="1"/>
<polyline fill="none" opacity="1" stroke="#010682" stroke-width="5" points="91,237 118,225 175,205 203,194 232,183 260,173 317,138 345,139 374,129 "/>
<circle cx="91" cy="237" r="5" opacity="1" fill="#010682" stroke="none" stroke-width="1"/>
<circle cx="118" cy="225" r="5" opacity="1" fill="#010682" stroke="none" stroke-width="1"/>
<circle cx="175" cy="205" r="5" opacity="1" fill="#010682" stroke="none" stroke-width="1"/>
<circle cx="203" cy="194" r="5" opacity="1" fill="#010682" stroke="none" stroke-width="1"/>
<circle cx="232" cy="183" r="5" opacity="1" fill="#010682" stroke="none" stroke-width="1"/>
<circle cx="260" cy="173" r="5" opacity="1" fill="#010682" stroke="none" stroke-width="1"/>
<circle cx="317" cy="138" r="5" opacity="1" fill="#010682" stroke="none" stroke-width="1"/>
<circle cx="345" cy="139" r="5" opacity="1" fill="#010682" stroke="none" stroke-width="1"/>
<circle cx="374" cy="129" r="5" opacity="1" fill="#010682" stroke="none" stroke-width="1"/>
<polyline fill="none" opacity="1" stroke="#000000" stroke-width="1" points="90,40 374,40 "/>
<polyline fill="none" opacity="1" stroke="#000000" stroke-width="1" points="374,239 374,40 "/>
<rect x="20" y="6" width="20" height="20" opacity="1" fill="#00611D" stroke="none"/>
<polyline fill="none" opacity="1" stroke="#000000" stroke-width="1" points="20,6 40,6 "/>
<polyline fill="none" opacity="1" stroke="#000000" stroke-width="1" points="40,6 40,26 "/>
<polyline fill="none" opacity="1" stroke="#000000" stroke-width="1" points="20,6 20,26 "/>
<polyline fill="none" opacity="1" stroke="#000000" stroke-width="1" points="20,26 40,26 "/>
<text x="50" y="8" dy="0.76em" text-anchor="start" font-family="sans-serif" font-size="22.580645161290324" opacity="1" fill="#000000">
managed-hsm
</text>
<rect x="240" y="6" width="20" height="20" opacity="1" fill="#A36302" stroke="none"/>
<polyline fill="none" opacity="1" stroke="#000000" stroke-width="1" points="240,6 260,6 "/>
<polyline fill="none" opacity="1" stroke="#000000" stroke-width="1" points="260,6 260,26 "/>
<polyline fill="none" opacity="1" stroke="#000000" stroke-width="1" points="240,6 240,26 "/>
<polyline fill="none" opacity="1" stroke="#000000" stroke-width="1" points="240,26 260,26 "/>
<text x="270" y="8" dy="0.76em" text-anchor="start" font-family="sans-serif" font-size="22.580645161290324" opacity="1" fill="#000000">
trustee
</text>
</svg>
