<svg width="400" height="300" viewBox="0 0 400 300" xmlns="http://www.w3.org/2000/svg">
<rect x="0" y="0" width="400" height="300" opacity="1" fill="#FFFFFF" stroke="none"/>
<line opacity="1" stroke="#FFFFFF" stroke-width="1" x1="90" y1="239" x2="90" y2="40"/>
<line opacity="1" stroke="#FFFFFF" stroke-width="1" x1="108" y1="239" x2="108" y2="40"/>
<line opacity="1" stroke="#FFFFFF" stroke-width="1" x1="127" y1="239" x2="127" y2="40"/>
<line opacity="1" stroke="#FFFFFF" stroke-width="1" x1="146" y1="239" x2="146" y2="40"/>
<line opacity="1" stroke="#FFFFFF" stroke-width="1" x1="165" y1="239" x2="165" y2="40"/>
<line opacity="1" stroke="#FFFFFF" stroke-width="1" x1="184" y1="239" x2="184" y2="40"/>
<line opacity="1" stroke="#FFFFFF" stroke-width="1" x1="203" y1="239" x2="203" y2="40"/>
<line opacity="1" stroke="#FFFFFF" stroke-width="1" x1="222" y1="239" x2="222" y2="40"/>
<line opacity="1" stroke="#FFFFFF" stroke-width="1" x1="241" y1="239" x2="241" y2="40"/>
<line opacity="1" stroke="#FFFFFF" stroke-width="1" x1="260" y1="239" x2="260" y2="40"/>
<line opacity="1" stroke="#FFFFFF" stroke-width="1" x1="279" y1="239" x2="279" y2="40"/>
<line opacity="1" stroke="#FFFFFF" stroke-width="1" x1="298" y1="239" x2="298" y2="40"/>
<line opacity="1" stroke="#FFFFFF" stroke-width="1" x1="317" y1="239" x2="317" y2="40"/>
<line opacity="1" stroke="#FFFFFF" stroke-width="1" x1="336" y1="239" x2="336" y2="40"/>
<line opacity="1" stroke="#FFFFFF" stroke-width="1" x1="355" y1="239" x2="355" y2="40"/>
<line opacity="1" stroke="#FFFFFF" stroke-width="1" x1="374" y1="239" x2="374" y2="40"/>
<line opacity="1" stroke="#FFFFFF" stroke-width="1" x1="90" y1="239" x2="374" y2="239"/>
<line opacity="1" stroke="#FFFFFF" stroke-width="1" x1="90" y1="233" x2="374" y2="233"/>
<line opacity="1" stroke="#FFFFFF" stroke-width="1" x1="90" y1="226" x2="374" y2="226"/>
<line opacity="1" stroke="#FFFFFF" stroke-width="1" x1="90" y1="219" x2="374" y2="219"/>
<line opacity="1" stroke="#FFFFFF" stroke-width="1" x1="90" y1="212" x2="374" y2="212"/>
<line opacity="1" stroke="#FFFFFF" stroke-width="1" x1="90" y1="206" x2="374" y2="206"/>
<line opacity="1" stroke="#FFFFFF" stroke-width="1" x1="90" y1="199" x2="374" y2="199"/>
<line opacity="1" stroke="#FFFFFF" stroke-width="1" x1="90" y1="192" x2="374" y2="192"/>
<line opacity="1" stroke="#FFFFFF" stroke-width="1" x1="90" y1="185" x2="374" y2="185"/>
<line opacity="1" stroke="#FFFFFF" stroke-width="1" x1="90" y1="179" x2="374" y2="179"/>
<line opacity="1" stroke="#FFFFFF" stroke-width="1" x1="90" y1="172" x2="374" y2="172"/>
<line opacity="1" stroke="#FFFFFF" stroke-width="1" x1="90" y1="165" x2="374" y2="165"/>
<line opacity="1" stroke="#FFFFFF" stroke-width="1" x1="90" y1="158" x2="374" y2="158"/>
<line opacity="1" stroke="#FFFFFF" stroke-width="1" x1="90" y1="152" x2="374" y2="152"/>
<line opacity="1" stroke="#FFFFFF" stroke-width="1" x1="90" y1="145" x2="374" y2="145"/>
<line opacity="1" stroke="#FFFFFF" stroke-width="1" x1="90" y1="138" x2="374" y2="138"/>
<line opacity="1" stroke="#FFFFFF" stroke-width="1" x1="90" y1="131" x2="374" y2="131"/>
<line opacity="1" stroke="#FFFFFF" stroke-width="1" x1="90" y1="125" x2="374" y2="125"/>
<line opacity="1" stroke="#FFFFFF" stroke-width="1" x1="90" y1="118" x2="374" y2="118"/>
<line opacity="1" stroke="#FFFFFF" stroke-width="1" x1="90" y1="111" x2="374" y2="111"/>
<line opacity="1" stroke="#FFFFFF" stroke-width="1" x1="90" y1="104" x2="374" y2="104"/>
<line opacity="1" stroke="#FFFFFF" stroke-width="1" x1="90" y1="98" x2="374" y2="98"/>
<line opacity="1" stroke="#FFFFFF" stroke-width="1" x1="90" y1="91" x2="374" y2="91"/>
<line opacity="1" stroke="#FFFFFF" stroke-width="1" x1="90" y1="84" x2="374" y2="84"/>
<line opacity="1" stroke="#FFFFFF" stroke-width="1" x1="90" y1="77" x2="374" y2="77"/>
<line opacity="1" stroke="#FFFFFF" stroke-width="1" x1="90" y1="70" x2="374" y2="70"/>
<line opacity="1" stroke="#FFFFFF" stroke-width="1" x1="90" y1="64" x2="374" y2="64"/>
<line opacity="1" stroke="#FFFFFF" stroke-width="1" x1="90" y1="57" x2="374" y2="57"/>
<line opacity="1" stroke="#FFFFFF" stroke-width="1" x1="90" y1="50" x2="374" y2="50"/>
<line opacity="1" stroke="#FFFFFF" stroke-width="1" x1="90" y1="43" x2="374" y2="43"/>
<line opacity="0.2" stroke="#000000" stroke-width="1" x1="165" y1="239" x2="165" y2="40"/>
<line opacity="0.2" stroke="#000000" stroke-width="1" x1="260" y1="239" x2="260" y2="40"/>
<line opacity="0.2" stroke="#000000" stroke-width="1" x1="355" y1="239" x2="355" y2="40"/>
<line opacity="0.2" stroke="#000000" stroke-width="1" x1="90" y1="239" x2="374" y2="239"/>
<line opacity="0.2" stroke="#000000" stroke-width="1" x1="90" y1="172" x2="374" y2="172"/>
<line opacity="0.2" stroke="#000000" stroke-width="1" x1="90" y1="104" x2="374" y2="104"/>
<polyline fill="none" opacity="1" stroke="#000000" stroke-width="1" points="89,40 89,239 "/>
<text x="80" y="239" dy="0.5ex" text-anchor="end" font-family="sans-serif" font-size="22.580645161290324" opacity="1" fill="#000000">
0.0
</text>
<polyline fill="none" opacity="1" stroke="#000000" stroke-width="1" points="84,239 89,239 "/>
<text x="80" y="172" dy="0.5ex" text-anchor="end" font-family="sans-serif" font-size="22.580645161290324" opacity="1" fill="#000000">
10.0
</text>
<polyline fill="none" opacity="1" stroke="#000000" stroke-width="1" points="84,172 89,172 "/>
<text x="80" y="104" dy="0.5ex" text-anchor="end" font-family="sans-serif" font-size="22.580645161290324" opacity="1" fill="#000000">
20.0
</text>
<polyline fill="none" opacity="1" stroke="#000000" stroke-width="1" points="84,104 89,104 "/>
<polyline fill="none" opacity="1" stroke="#000000" stroke-width="1" points="90,240 374,240 "/>
<text x="165" y="250" dy="0.76em" text-anchor="middle" font-family="sans-serif" font-size="22.580645161290324" opacity="1" fill="#000000">
5
</text>
<polyline fill="none" opacity="1" stroke="#000000" stroke-width="1" points="165,240 165,245 "/>
<text x="260" y="250" dy="0.76em" text-anchor="middle" font-family="sans-serif" font-size="22.580645161290324" opacity="1" fill="#000000">
10
</text>
<polyline fill="none" opacity="1" stroke="#000000" stroke-width="1" points="260,240 260,245 "/>
<text x="355" y="250" dy="0.76em" text-anchor="middle" font-family="sans-serif" font-size="22.580645161290324" opacity="1" fill="#000000">
15
</text>
<polyline fill="none" opacity="1" stroke="#000000" stroke-width="1" points="355,240 355,245 "/>
<text x="5" y="220" dy="0.76em" text-anchor="start" font-family="sans-serif" font-size="22.580645161290324" opacity="1" fill="#000000" transform="rotate(270, 5, 220)">
Latency [ms]
</text>
<text x="100" y="275" dy="0.76em" text-anchor="start" font-family="sans-serif" font-size="22.580645161290324" opacity="1" fill="#000000">
# of attestation services
</text>
<polyline fill="none" opacity="1" stroke="#820101" stroke-width="5" points="90,194 108,185 146,167 222,131 298,95 374,59 "/>
<circle cx="90" cy="194" r="5" opacity="1" fill="#820101" stroke="none" stroke-width="1"/>
<circle cx="108" cy="185" r="5" opacity="1" fill="#820101" stroke="none" stroke-width="1"/>
<circle cx="146" cy="167" r="5" opacity="1" fill="#820101" stroke="none" stroke-width="1"/>
<circle cx="222" cy="131" r="5" opacity="1" fill="#820101" stroke="none" stroke-width="1"/>
<circle cx="298" cy="95" r="5" opacity="1" fill="#820101" stroke="none" stroke-width="1"/>
<circle cx="374" cy="59" r="5" opacity="1" fill="#820101" stroke="none" stroke-width="1"/>
<polyline fill="none" opacity="1" stroke="#010682" stroke-width="5" points="90,194 108,194 146,194 222,194 298,194 374,193 "/>
<circle cx="90" cy="194" r="5" opacity="1" fill="#010682" stroke="none" stroke-width="1"/>
<circle cx="108" cy="194" r="5" opacity="1" fill="#010682" stroke="none" stroke-width="1"/>
<circle cx="146" cy="194" r="5" opacity="1" fill="#010682" stroke="none" stroke-width="1"/>
<circle cx="222" cy="194" r="5" opacity="1" fill="#010682" stroke="none" stroke-width="1"/>
<circle cx="298" cy="194" r="5" opacity="1" fill="#010682" stroke="none" stroke-width="1"/>
<circle cx="374" cy="193" r="5" opacity="1" fill="#010682" stroke="none" stroke-width="1"/>
<polyline fill="none" opacity="1" stroke="#010682" stroke-width="5" points="90,194 95,194 "/>
<polyline fill="none" opacity="1" stroke="#010682" stroke-width="5" points="100,194 105,194 "/>
<polyline fill="none" opacity="1" stroke="#010682" stroke-width="5" points="110,194 115,194 "/>
<polyline fill="none" opacity="1" stroke="#010682" stroke-width="5" points="120,194 125,194 "/>
<polyline fill="none" opacity="1" stroke="#010682" stroke-width="5" points="130,194 135,194 "/>
<polyline fill="none" opacity="1" stroke="#010682" stroke-width="5" points="140,194 145,194 "/>
<polyline fill="none" opacity="1" stroke="#010682" stroke-width="5" points="150,194 155,194 "/>
<polyline fill="none" opacity="1" stroke="#010682" stroke-width="5" points="160,194 165,194 "/>
<polyline fill="none" opacity="1" stroke="#010682" stroke-width="5" points="170,194 175,194 "/>
<polyline fill="none" opacity="1" stroke="#010682" stroke-width="5" points="180,194 185,194 "/>
<polyline fill="none" opacity="1" stroke="#010682" stroke-width="5" points="190,194 195,194 "/>
<polyline fill="none" opacity="1" stroke="#010682" stroke-width="5" points="200,194 205,194 "/>
<polyline fill="none" opacity="1" stroke="#010682" stroke-width="5" points="210,194 215,194 "/>
<polyline fill="none" opacity="1" stroke="#010682" stroke-width="5" points="220,194 222,194 225,194 "/>
<polyline fill="none" opacity="1" stroke="#010682" stroke-width="5" points="230,194 235,194 "/>
<polyline fill="none" opacity="1" stroke="#010682" stroke-width="5" points="240,194 245,194 "/>
<polyline fill="none" opacity="1" stroke="#010682" stroke-width="5" points="250,194 255,194 "/>
<polyline fill="none" opacity="1" stroke="#010682" stroke-width="5" points="260,194 265,194 "/>
<polyline fill="none" opacity="1" stroke="#010682" stroke-width="5" points="270,194 275,194 "/>
<polyline fill="none" opacity="1" stroke="#010682" stroke-width="5" points="280,194 285,194 "/>
<polyline fill="none" opacity="1" stroke="#010682" stroke-width="5" points="290,194 295,194 "/>
<polyline fill="none" opacity="1" stroke="#010682" stroke-width="5" points="300,194 305,194 "/>
<polyline fill="none" opacity="1" stroke="#010682" stroke-width="5" points="310,194 315,194 "/>
<polyline fill="none" opacity="1" stroke="#010682" stroke-width="5" points="320,194 325,194 "/>
<polyline fill="none" opacity="1" stroke="#010682" stroke-width="5" points="330,194 335,194 "/>
<polyline fill="none" opacity="1" stroke="#010682" stroke-width="5" points="340,194 345,194 "/>
<polyline fill="none" opacity="1" stroke="#010682" stroke-width="5" points="350,194 355,194 "/>
<polyline fill="none" opacity="1" stroke="#010682" stroke-width="5" points="360,194 365,194 "/>
<polyline fill="none" opacity="1" stroke="#010682" stroke-width="5" points="370,194 374,194 "/>
<circle cx="90" cy="194" r="5" opacity="1" fill="#010682" stroke="none" stroke-width="1"/>
<circle cx="108" cy="194" r="5" opacity="1" fill="#010682" stroke="none" stroke-width="1"/>
<circle cx="146" cy="194" r="5" opacity="1" fill="#010682" stroke="none" stroke-width="1"/>
<circle cx="222" cy="194" r="5" opacity="1" fill="#010682" stroke="none" stroke-width="1"/>
<circle cx="298" cy="194" r="5" opacity="1" fill="#010682" stroke="none" stroke-width="1"/>
<circle cx="374" cy="194" r="5" opacity="1" fill="#010682" stroke="none" stroke-width="1"/>
<polyline fill="none" opacity="1" stroke="#000000" stroke-width="1" points="90,40 374,40 "/>
<polyline fill="none" opacity="1" stroke="#000000" stroke-width="1" points="374,239 374,40 "/>
<rect x="100" y="5" width="20" height="20" opacity="1" fill="#010682" stroke="none"/>
<polyline fill="none" opacity="1" stroke="#000000" stroke-width="1" points="100,5 120,5 "/>
<polyline fill="none" opacity="1" stroke="#000000" stroke-width="1" points="120,5 120,25 "/>
<polyline fill="none" opacity="1" stroke="#000000" stroke-width="1" points="100,5 100,25 "/>
<polyline fill="none" opacity="1" stroke="#000000" stroke-width="1" points="100,25 120,25 "/>
<text x="130" y="7" dy="0.76em" text-anchor="start" font-family="sans-serif" font-size="22.580645161290324" opacity="1" fill="#000000">
all disjunction policy
</text>
</svg>
