<svg width="400" height="300" viewBox="0 0 400 300" xmlns="http://www.w3.org/2000/svg">
<rect x="0" y="0" width="400" height="300" opacity="1" fill="#FFFFFF" stroke="none"/>
<line opacity="1" stroke="#FFFFFF" stroke-width="1" x1="90" y1="239" x2="90" y2="40"/>
<line opacity="1" stroke="#FFFFFF" stroke-width="1" x1="108" y1="239" x2="108" y2="40"/>
<line opacity="1" stroke="#FFFFFF" stroke-width="1" x1="127" y1="239" x2="127" y2="40"/>
<line opacity="1" stroke="#FFFFFF" stroke-width="1" x1="146" y1="239" x2="146" y2="40"/>
<line opacity="1" stroke="#FFFFFF" stroke-width="1" x1="165" y1="239" x2="165" y2="40"/>
<line opacity="1" stroke="#FFFFFF" stroke-width="1" x1="184" y1="239" x2="184" y2="40"/>
<line opacity="1" stroke="#FFFFFF" stroke-width="1" x1="203" y1="239" x2="203" y2="40"/>
<line opacity="1" stroke="#FFFFFF" stroke-width="1" x1="222" y1="239" x2="222" y2="40"/>
<line opacity="1" stroke="#FFFFFF" stroke-width="1" x1="241" y1="239" x2="241" y2="40"/>
<line opacity="1" stroke="#FFFFFF" stroke-width="1" x1="260" y1="239" x2="260" y2="40"/>
<line opacity="1" stroke="#FFFFFF" stroke-width="1" x1="279" y1="239" x2="279" y2="40"/>
<line opacity="1" stroke="#FFFFFF" stroke-width="1" x1="298" y1="239" x2="298" y2="40"/>
<line opacity="1" stroke="#FFFFFF" stroke-width="1" x1="317" y1="239" x2="317" y2="40"/>
<line opacity="1" stroke="#FFFFFF" stroke-width="1" x1="336" y1="239" x2="336" y2="40"/>
<line opacity="1" stroke="#FFFFFF" stroke-width="1" x1="355" y1="239" x2="355" y2="40"/>
<line opacity="1" stroke="#FFFFFF" stroke-width="1" x1="374" y1="239" x2="374" y2="40"/>
<line opacity="1" stroke="#FFFFFF" stroke-width="1" x1="90" y1="239" x2="374" y2="239"/>
<line opacity="1" stroke="#FFFFFF" stroke-width="1" x1="90" y1="231" x2="374" y2="231"/>
<line opacity="1" stroke="#FFFFFF" stroke-width="1" x1="90" y1="223" x2="374" y2="223"/>
<line opacity="1" stroke="#FFFFFF" stroke-width="1" x1="90" y1="215" x2="374" y2="215"/>
<line opacity="1" stroke="#FFFFFF" stroke-width="1" x1="90" y1="207" x2="374" y2="207"/>
<line opacity="1" stroke="#FFFFFF" stroke-width="1" x1="90" y1="199" x2="374" y2="199"/>
<line opacity="1" stroke="#FFFFFF" stroke-width="1" x1="90" y1="191" x2="374" y2="191"/>
<line opacity="1" stroke="#FFFFFF" stroke-width="1" x1="90" y1="183" x2="374" y2="183"/>
<line opacity="1" stroke="#FFFFFF" stroke-width="1" x1="90" y1="174" x2="374" y2="174"/>
<line opacity="1" stroke="#FFFFFF" stroke-width="1" x1="90" y1="166" x2="374" y2="166"/>
<line opacity="1" stroke="#FFFFFF" stroke-width="1" x1="90" y1="158" x2="374" y2="158"/>
<line opacity="1" stroke="#FFFFFF" stroke-width="1" x1="90" y1="150" x2="374" y2="150"/>
<line opacity="1" stroke="#FFFFFF" stroke-width="1" x1="90" y1="142" x2="374" y2="142"/>
<line opacity="1" stroke="#FFFFFF" stroke-width="1" x1="90" y1="134" x2="374" y2="134"/>
<line opacity="1" stroke="#FFFFFF" stroke-width="1" x1="90" y1="126" x2="374" y2="126"/>
<line opacity="1" stroke="#FFFFFF" stroke-width="1" x1="90" y1="117" x2="374" y2="117"/>
<line opacity="1" stroke="#FFFFFF" stroke-width="1" x1="90" y1="109" x2="374" y2="109"/>
<line opacity="1" stroke="#FFFFFF" stroke-width="1" x1="90" y1="101" x2="374" y2="101"/>
<line opacity="1" stroke="#FFFFFF" stroke-width="1" x1="90" y1="93" x2="374" y2="93"/>
<line opacity="1" stroke="#FFFFFF" stroke-width="1" x1="90" y1="85" x2="374" y2="85"/>
<line opacity="1" stroke="#FFFFFF" stroke-width="1" x1="90" y1="77" x2="374" y2="77"/>
<line opacity="1" stroke="#FFFFFF" stroke-width="1" x1="90" y1="69" x2="374" y2="69"/>
<line opacity="1" stroke="#FFFFFF" stroke-width="1" x1="90" y1="60" x2="374" y2="60"/>
<line opacity="1" stroke="#FFFFFF" stroke-width="1" x1="90" y1="52" x2="374" y2="52"/>
<line opacity="1" stroke="#FFFFFF" stroke-width="1" x1="90" y1="44" x2="374" y2="44"/>
<line opacity="0.2" stroke="#000000" stroke-width="1" x1="165" y1="239" x2="165" y2="40"/>
<line opacity="0.2" stroke="#000000" stroke-width="1" x1="260" y1="239" x2="260" y2="40"/>
<line opacity="0.2" stroke="#000000" stroke-width="1" x1="355" y1="239" x2="355" y2="40"/>
<line opacity="0.2" stroke="#000000" stroke-width="1" x1="90" y1="239" x2="374" y2="239"/>
<line opacity="0.2" stroke="#000000" stroke-width="1" x1="90" y1="158" x2="374" y2="158"/>
<line opacity="0.2" stroke="#000000" stroke-width="1" x1="90" y1="77" x2="374" y2="77"/>
<polyline fill="none" opacity="1" stroke="#000000" stroke-width="1" points="89,40 89,239 "/>
<text x="80" y="239" dy="0.5ex" text-anchor="end" font-family="sans-serif" font-size="22.580645161290324" opacity="1" fill="#000000">
0.0
</text>
<polyline fill="none" opacity="1" stroke="#000000" stroke-width="1" points="84,239 89,239 "/>
<text x="80" y="158" dy="0.5ex" text-anchor="end" font-family="sans-serif" font-size="22.580645161290324" opacity="1" fill="#000000">
50.0
</text>
<polyline fill="none" opacity="1" stroke="#000000" stroke-width="1" points="84,158 89,158 "/>
<text x="80" y="77" dy="0.5ex" text-anchor="end" font-family="sans-serif" font-size="22.580645161290324" opacity="1" fill="#000000">
100.0
</text>
<polyline fill="none" opacity="1" stroke="#000000" stroke-width="1" points="84,77 89,77 "/>
<polyline fill="none" opacity="1" stroke="#000000" stroke-width="1" points="90,240 374,240 "/>
<text x="165" y="250" dy="0.76em" text-anchor="middle" font-family="sans-serif" font-size="22.580645161290324" opacity="1" fill="#000000">
5
</text>
<polyline fill="none" opacity="1" stroke="#000000" stroke-width="1" points="165,240 165,245 "/>
<text x="260" y="250" dy="0.76em" text-anchor="middle" font-family="sans-serif" font-size="22.580645161290324" opacity="1" fill="#000000">
10
</text>
<polyline fill="none" opacity="1" stroke="#000000" stroke-width="1" points="260,240 260,245 "/>
<text x="355" y="250" dy="0.76em" text-anchor="middle" font-family="sans-serif" font-size="22.580645161290324" opacity="1" fill="#000000">
15
</text>
<polyline fill="none" opacity="1" stroke="#000000" stroke-width="1" points="355,240 355,245 "/>
<text x="5" y="220" dy="0.76em" text-anchor="start" font-family="sans-serif" font-size="22.580645161290324" opacity="1" fill="#000000" transform="rotate(270, 5, 220)">
Latency [ms]
</text>
<text x="100" y="275" dy="0.76em" text-anchor="start" font-family="sans-serif" font-size="22.580645161290324" opacity="1" fill="#000000">
# of attestation services
</text>
<polyline fill="none" opacity="1" stroke="#820101" stroke-width="5" points="90,223 108,212 146,190 222,147 298,103 374,60 "/>
<circle cx="90" cy="223" r="5" opacity="1" fill="#820101" stroke="none" stroke-width="1"/>
<circle cx="108" cy="212" r="5" opacity="1" fill="#820101" stroke="none" stroke-width="1"/>
<circle cx="146" cy="190" r="5" opacity="1" fill="#820101" stroke="none" stroke-width="1"/>
<circle cx="222" cy="147" r="5" opacity="1" fill="#820101" stroke="none" stroke-width="1"/>
<circle cx="298" cy="103" r="5" opacity="1" fill="#820101" stroke="none" stroke-width="1"/>
<circle cx="374" cy="60" r="5" opacity="1" fill="#820101" stroke="none" stroke-width="1"/>
<polyline fill="none" opacity="1" stroke="#010682" stroke-width="5" points="90,223 108,212 146,190 222,147 298,103 374,60 "/>
<circle cx="90" cy="223" r="5" opacity="1" fill="#010682" stroke="none" stroke-width="1"/>
<circle cx="108" cy="212" r="5" opacity="1" fill="#010682" stroke="none" stroke-width="1"/>
<circle cx="146" cy="190" r="5" opacity="1" fill="#010682" stroke="none" stroke-width="1"/>
<circle cx="222" cy="147" r="5" opacity="1" fill="#010682" stroke="none" stroke-width="1"/>
<circle cx="298" cy="103" r="5" opacity="1" fill="#010682" stroke="none" stroke-width="1"/>
<circle cx="374" cy="60" r="5" opacity="1" fill="#010682" stroke="none" stroke-width="1"/>
<polyline fill="none" opacity="1" stroke="#010682" stroke-width="5" points="90,223 94,220 "/>
<polyline fill="none" opacity="1" stroke="#010682" stroke-width="5" points="99,218 103,215 "/>
<polyline fill="none" opacity="1" stroke="#010682" stroke-width="5" points="107,213 108,212 111,210 "/>
<polyline fill="none" opacity="1" stroke="#010682" stroke-width="5" points="116,208 120,205 "/>
<polyline fill="none" opacity="1" stroke="#010682" stroke-width="5" points="124,203 129,200 "/>
<polyline fill="none" opacity="1" stroke="#010682" stroke-width="5" points="133,198 137,195 "/>
<polyline fill="none" opacity="1" stroke="#010682" stroke-width="5" points="142,193 146,190 "/>
<polyline fill="none" opacity="1" stroke="#010682" stroke-width="5" points="150,188 155,185 "/>
<polyline fill="none" opacity="1" stroke="#010682" stroke-width="5" points="159,183 163,180 "/>
<polyline fill="none" opacity="1" stroke="#010682" stroke-width="5" points="168,178 172,175 "/>
<polyline fill="none" opacity="1" stroke="#010682" stroke-width="5" points="176,173 181,170 "/>
<polyline fill="none" opacity="1" stroke="#010682" stroke-width="5" points="185,168 190,165 "/>
<polyline fill="none" opacity="1" stroke="#010682" stroke-width="5" points="194,163 198,160 "/>
<polyline fill="none" opacity="1" stroke="#010682" stroke-width="5" points="203,158 207,156 "/>
<polyline fill="none" opacity="1" stroke="#010682" stroke-width="5" points="211,153 216,151 "/>
<polyline fill="none" opacity="1" stroke="#010682" stroke-width="5" points="220,148 222,147 224,146 "/>
<polyline fill="none" opacity="1" stroke="#010682" stroke-width="5" points="229,143 233,141 "/>
<polyline fill="none" opacity="1" stroke="#010682" stroke-width="5" points="237,138 242,136 "/>
<polyline fill="none" opacity="1" stroke="#010682" stroke-width="5" points="246,133 250,131 "/>
<polyline fill="none" opacity="1" stroke="#010682" stroke-width="5" points="255,128 259,126 "/>
<polyline fill="none" opacity="1" stroke="#010682" stroke-width="5" points="263,124 268,121 "/>
<polyline fill="none" opacity="1" stroke="#010682" stroke-width="5" points="272,119 277,116 "/>
<polyline fill="none" opacity="1" stroke="#010682" stroke-width="5" points="281,114 285,111 "/>
<polyline fill="none" opacity="1" stroke="#010682" stroke-width="5" points="290,109 294,106 "/>
<polyline fill="none" opacity="1" stroke="#010682" stroke-width="5" points="298,104 303,101 "/>
<polyline fill="none" opacity="1" stroke="#010682" stroke-width="5" points="307,99 311,96 "/>
<polyline fill="none" opacity="1" stroke="#010682" stroke-width="5" points="316,94 320,91 "/>
<polyline fill="none" opacity="1" stroke="#010682" stroke-width="5" points="324,89 328,86 "/>
<polyline fill="none" opacity="1" stroke="#010682" stroke-width="5" points="333,83 337,81 "/>
<polyline fill="none" opacity="1" stroke="#010682" stroke-width="5" points="341,78 346,76 "/>
<polyline fill="none" opacity="1" stroke="#010682" stroke-width="5" points="350,73 354,71 "/>
<polyline fill="none" opacity="1" stroke="#010682" stroke-width="5" points="359,68 363,66 "/>
<polyline fill="none" opacity="1" stroke="#010682" stroke-width="5" points="367,63 371,61 "/>
<circle cx="90" cy="223" r="5" opacity="1" fill="#010682" stroke="none" stroke-width="1"/>
<circle cx="108" cy="212" r="5" opacity="1" fill="#010682" stroke="none" stroke-width="1"/>
<circle cx="146" cy="190" r="5" opacity="1" fill="#010682" stroke="none" stroke-width="1"/>
<circle cx="222" cy="147" r="5" opacity="1" fill="#010682" stroke="none" stroke-width="1"/>
<circle cx="298" cy="104" r="5" opacity="1" fill="#010682" stroke="none" stroke-width="1"/>
<circle cx="374" cy="59" r="5" opacity="1" fill="#010682" stroke="none" stroke-width="1"/>
<polyline fill="none" opacity="1" stroke="#000000" stroke-width="1" points="90,40 374,40 "/>
<polyline fill="none" opacity="1" stroke="#000000" stroke-width="1" points="374,239 374,40 "/>
<rect x="100" y="5" width="20" height="20" opacity="1" fill="#820101" stroke="none"/>
<polyline fill="none" opacity="1" stroke="#000000" stroke-width="1" points="100,5 120,5 "/>
<polyline fill="none" opacity="1" stroke="#000000" stroke-width="1" points="120,5 120,25 "/>
<polyline fill="none" opacity="1" stroke="#000000" stroke-width="1" points="100,5 100,25 "/>
<polyline fill="none" opacity="1" stroke="#000000" stroke-width="1" points="100,25 120,25 "/>
<text x="130" y="7" dy="0.76em" text-anchor="start" font-family="sans-serif" font-size="22.580645161290324" opacity="1" fill="#000000">
all conjunction policy
</text>
</svg>
